<svg xmlns="http://www.w3.org/2000/svg" xmlns:xlink="http://www.w3.org/1999/xlink" width="350" zoomAndPan="magnify" viewBox="0 0 262.5 365.999986" height="488" preserveAspectRatio="xMidYMid meet" version="1.0"><defs><g/><clipPath id="9cc8794f77"><path d="M 1.714844 53.714844 L 260.285156 53.714844 L 260.285156 312.285156 L 1.714844 312.285156 Z M 1.714844 53.714844 " clip-rule="nonzero"/></clipPath><clipPath id="01d32e80e5"><path d="M 131 53.714844 C 59.597656 53.714844 1.714844 111.597656 1.714844 183 C 1.714844 254.402344 59.597656 312.285156 131 312.285156 C 202.402344 312.285156 260.285156 254.402344 260.285156 183 C 260.285156 111.597656 202.402344 53.714844 131 53.714844 Z M 131 53.714844 " clip-rule="nonzero"/></clipPath><clipPath id="404648a86a"><path d="M 1.714844 53.714844 L 259.976562 53.714844 L 259.976562 311.972656 L 1.714844 311.972656 Z M 1.714844 53.714844 " clip-rule="nonzero"/></clipPath><clipPath id="44b22ac3c1"><path d="M 130.996094 53.714844 C 59.597656 53.714844 1.714844 111.597656 1.714844 182.996094 C 1.714844 254.398438 59.597656 312.277344 130.996094 312.277344 C 202.398438 312.277344 260.277344 254.398438 260.277344 182.996094 C 260.277344 111.597656 202.398438 53.714844 130.996094 53.714844 Z M 130.996094 53.714844 " clip-rule="nonzero"/></clipPath></defs><g clip-path="url(#9cc8794f77)"><g clip-path="url(#01d32e80e5)"><path fill="#0097b2" d="M 1.714844 53.714844 L 260.285156 53.714844 L 260.285156 312.285156 L 1.714844 312.285156 Z M 1.714844 53.714844 " fill-opacity="1" fill-rule="nonzero"/></g></g><g clip-path="url(#404648a86a)"><g clip-path="url(#44b22ac3c1)"><path stroke-linecap="butt" transform="matrix(0.748574, 0, 0, 0.748574, 1.716754, 53.716268)" fill="none" stroke-linejoin="miter" d="M 172.700788 -0.00190247 C 77.321538 -0.00190247 -0.00255236 77.322188 -0.00255236 172.701438 C -0.00255236 268.085906 77.321538 345.404779 172.700788 345.404779 C 268.085256 345.404779 345.404129 268.085906 345.404129 172.701438 C 345.404129 77.322188 268.085256 -0.00190247 172.700788 -0.00190247 Z M 172.700788 -0.00190247 " stroke="#bff8fa" stroke-width="8" stroke-opacity="1" stroke-miterlimit="4"/></g></g><g fill="#bff8fa" fill-opacity="1"><g transform="translate(43.589277, 257.57308)"><g><path d="M 5.84375 0 Z M 58.421875 -154.59375 L 117.0625 -154.59375 L 169.875 -15.734375 L 169.875 0 L 5.84375 0 L 5.84375 -15.734375 Z M 112.34375 -34.375 L 87.40625 -117.75 L 86.515625 -117.75 L 60.21875 -34.375 Z M 112.34375 -34.375 "/></g></g></g></svg>